<svg xmlns="http://www.w3.org/2000/svg" width="30.751" height="31.363" viewBox="0 0 30.751 31.363"><defs><style>.a{fill:#369;}</style></defs><g transform="translate(-5.159 511.727)"><path class="a" d="M18.894-511.652a15.488,15.488,0,0,0-5.07,1.563,12.644,12.644,0,0,0-2.238,1.367c0,.025.159.031.356.006a.887.887,0,0,1,.6.086,2.157,2.157,0,0,0,.454.166c.368.067.417.092.448.208.025.1.116.123.558.159a3.242,3.242,0,0,0,.558.018c.018-.012-.006-.116-.043-.221-.074-.2-.08-.2-.5-.2-.331,0-.411-.018-.362-.08a.33.33,0,0,0,.031-.245c-.031-.159-.049-.166-.4-.166h-.368l.4-.307c.392-.3.417-.307.822-.307h.417l.208.307.208.307h.38c.337,0,.392-.018.552-.184.2-.2.208-.208.337-.123.074.049.049.1-.153.307-.227.233-.257.245-.625.245s-.386,0-.386.165c0,.429.031.448.582.448.441,0,.509-.012.54-.11.025-.116.27-.2.564-.2.11,0,.153-.043.184-.184.049-.227,0-.307-.184-.307-.129,0-.141-.018-.1-.141.074-.2.288-.264.822-.239l.484.025-.251.215c-.417.356-.325.711.2.779l.3.037-.043-.362-.043-.368.307-.153a2.744,2.744,0,0,1,.779-.215l.478-.055.723.313.73.319v.288c0,.282.006.288.215.331.245.043.245.037.123.27-.086.172-.123.184-.423.184-.325,0-.331,0-.429.245a.98.98,0,0,1-.123.245c-.067,0-1.275-.294-1.294-.319a2.853,2.853,0,0,1,.533-.319l.558-.3-.239-.2c-.264-.227-.3-.233-.913-.147a.917.917,0,0,0-.644.276.564.564,0,0,1-.448.215c-.2,0-.227.018-.227.153a.249.249,0,0,0,.1.2c.08.043.061.061-.1.092-.123.031-.208.086-.227.165a.162.162,0,0,1-.172.123c-.141,0-.215-.1-.215-.313,0-.147-.116-.147-.527-.006a8.333,8.333,0,0,0-1.619.938,2.105,2.105,0,0,0,.074.319c.092.343.337.509.84.57l.374.043v.448c0,.392.012.454.11.454.27,0,.368-.08.5-.4s.147-.337.564-.472l.423-.135v-1.067l.208-.159c.251-.19.245-.19.852-.055l.478.11-.037.349-.043.356h.19a1.553,1.553,0,0,0,.552-.184l.362-.178.043.454.043.454.27.159c.251.147.27.172.27.429s-.006.27-.257.349c-.411.141-.386.294.074.49.313.141.368.184.368.319,0,.2-.067.2-.619.037-.356-.11-.423-.147-.423-.264a.29.29,0,0,1,.123-.215.223.223,0,0,0-.012-.4c-.208-.055-.221-.049-.264.08-.025.086-.123.135-.356.172-.307.049-.325.049-.423-.116-.086-.141-.153-.172-.343-.172-.276,0-.38.086-.38.319,0,.135.037.178.172.208.245.061.264.08.2.215-.061.11-.08.11-.2.025a.52.52,0,0,0-.227-.092,2.448,2.448,0,0,0-.736.705,1.213,1.213,0,0,1-.417.27,4.574,4.574,0,0,0-.975.76c-.478.466-.564.582-.582.772s-.061.251-.509.546a5.9,5.9,0,0,0-.717.546c-.233.227-.233.233-.233.705v.478l-.276-.135c-.27-.135-.276-.141-.276-.429v-.294h-1.9l-.509.276c-.484.264-.509.282-.736.717-.3.595-.343.969-.153,1.306.141.233.159.245.533.288l.386.043.546-.368a2.141,2.141,0,0,1,.607-.331c.1.061.067.264-.092.582a1.778,1.778,0,0,0-.153.362c0,.031.147.074.325.1.589.086.57.055.613.8a5.591,5.591,0,0,0,.061.687c.018.012.307.074.65.135l.619.116.38-.441c.208-.239.386-.448.4-.46a5.6,5.6,0,0,1,.877.153.71.71,0,0,1,.239.239l.147.215H17.2c.472,0,.515-.012.515-.123,0-.147.006-.147.264-.025a1.551,1.551,0,0,1,.49.552l.282.454h.987l.184.319a1.446,1.446,0,0,1,.19.57c.012.484.049.527.607.748a2.444,2.444,0,0,0,1.208.2h.687l.233.349c.2.3.276.362.515.435l.288.08-.061.251a1.88,1.88,0,0,1-.349.625c-.159.208-.313.4-.331.448-.037.061-.227,1.563-.227,1.809,0,.055-.147.215-.319.356l-.325.258-.435-.037-.435-.031-.166.294a.846.846,0,0,0-.129.38c.012.049.067.258.116.472l.086.38-.49.631a7.921,7.921,0,0,0-.625.9c-.11.227-.2.3-.589.5a3.274,3.274,0,0,1-.766.276c-.313.049-.4.1-.4.288,0,.074.067.116.215.147.276.049.276.172-.006.46l-.221.227.11.159a.386.386,0,0,0,.349.159c.2,0,.227.018.227.153a2.89,2.89,0,0,1-.092.49l-.086.343.221.2c.123.11.276.233.337.276a.24.24,0,0,1,.1.215c-.018.123-.061.135-.46.153l-.435.018-.484-.423a3.455,3.455,0,0,1-.834-1.055l-.356-.619.049-.619.055-.613-.27-.362-.27-.362.1-.576c.123-.723.123-.7-.037-.723-.141-.018-.141-.018-.159-1.379l-.012-1.361-.478-.331a3.151,3.151,0,0,0-.73-.4c-.233-.061-.257-.086-.294-.325-.037-.2-.178-.417-.625-.981l-.582-.723.067-.466a6.415,6.415,0,0,0,.067-.693c0-.233.086-.319.748-.748a1.29,1.29,0,0,0,.018-.564l-.043-.521-.607-.043-.607-.043-.472-.533c-.49-.558-.533-.576-1.392-.766-.153-.037-.172-.067-.147-.227.031-.2.018-.208-.337-.264-.19-.025-.227-.012-.227.08,0,.11-.043.1-.662-.049l-.656-.166-.257-.368c-.294-.4-.307-.46-.166-.693.1-.166.092-.172-.343-.815a2.04,2.04,0,0,1-.515-1.1l-.067-.448-.208-.018-.208-.018.037.325c.025.178.043.38.043.448a2.415,2.415,0,0,0,.307.613c.282.448.374.717.257.785a.615.615,0,0,1-.245,0c-.172-.031-.233-.1-.5-.552l-.307-.521v-1.275l-.337-.153-.337-.147-.006-.478v-.478L6.3-502a16.866,16.866,0,0,0-1.1,4.5,20.828,20.828,0,0,0,.1,3.777,15.72,15.72,0,0,0,8.344,11.63,15.524,15.524,0,0,0,5.585,1.68,23.838,23.838,0,0,0,4.034-.1,15.8,15.8,0,0,0,7.639-3.458,21.14,21.14,0,0,0,2.14-2.158c0-.031-.11-.055-.245-.055h-.245V-487.2l-.307-.423-.307-.423v-1.214l-.245-.264c-.337-.368-.331-.558.049-1.257l.288-.546-.153-.288c-.086-.166-.331-.607-.552-.987l-.386-.693.055-.668.055-.662-.215-.037a3.468,3.468,0,0,0-.441-.037.626.626,0,0,1-.472-.215.639.639,0,0,0-.576-.215.659.659,0,0,0-.521.153c-.166.141-.233.153-.772.153-.349,0-.589.025-.589.061s-.147.061-.325.061h-.331l-.742-.852-.748-.858v-.644c0-.509.018-.65.086-.65.123,0,.2-.123.245-.386.043-.221.037-.227-.141-.227-.159,0-.19-.031-.245-.227a.525.525,0,0,1-.031-.27c.012-.024.4-.319.852-.644l.828-.595v-.889l.392-.221a1.389,1.389,0,0,1,.963-.221,1.283,1.283,0,0,0,.815-.147,1.748,1.748,0,0,1,.864-.184c.337-.025.73-.055.877-.08l.257-.031v.92l.656.159a4.216,4.216,0,0,1,.852.288.838.838,0,0,0,.325.116c.11,0,.129-.037.129-.239,0-.276.055-.313.5-.313.264,0,.349.031.662.276l.356.276h.656c.527,0,.656-.018.687-.092a2.489,2.489,0,0,0-.178-.693l-.215-.595-.435-.018c-.423-.018-.441-.025-.613-.245a1.039,1.039,0,0,1-.221-.576l-.043-.356-.239.123c-.2.1-.239.159-.307.441-.116.5-.129.509-.417.215a.85.85,0,0,1-.307-.607c-.043-.325-.061-.356-.448-.687s-.417-.343-.76-.343c-.276,0-.343.018-.319.086.018.049.067.2.11.331.061.215.123.276.417.435.448.239.613.374.515.411-.049.018-.08.147-.08.294,0,.227-.018.264-.178.325a.441.441,0,0,1-.546-.11c-.067-.1-.055-.116.159-.116s.38-.086.38-.215a3.358,3.358,0,0,0-.613-.46,2.364,2.364,0,0,1-.613-.491.4.4,0,0,0-.055-.178c-.049-.074-.1-.049-.307.135s-.276.221-.448.184c-.11-.018-.227-.037-.257-.043a5.016,5.016,0,0,0-.9,1.165c-.055.159-.11.2-.294.233a2.121,2.121,0,0,1-1.171-.086c-.233-.116-.239-.129-.282-.546-.061-.6.018-.748.46-.846a1.5,1.5,0,0,1,.736.012,1.055,1.055,0,0,0,.435.043.742.742,0,0,0,.08-.27c.037-.2.025-.227-.1-.245s-.141-.049-.129-.319a.609.609,0,0,1,.086-.349,2,2,0,0,1,.417-.086c.343-.043.343-.043.631-.46.264-.38.307-.417.552-.448a3.888,3.888,0,0,1,.656,0l.392.037-.037-.239a2.552,2.552,0,0,1-.043-.331c-.006-.227-.092-.251-.4-.123a1.739,1.739,0,0,1-.307.11c-.006-.012-.055-.129-.1-.264-.074-.184-.141-.251-.282-.288a.268.268,0,0,1-.221-.208c-.061-.227.184-.466.631-.638a.815.815,0,0,0,.46-.313c.061-.1.1-.19.086-.2s-.245-.2-.527-.429a18.691,18.691,0,0,0-2.986-1.907,15.818,15.818,0,0,0-4.347-1.392A22.966,22.966,0,0,0,18.894-511.652Zm9.889,5.524a1.573,1.573,0,0,0,.589.932c.208.123.208.123.055.306-.1.116-.2.147-.613.178l-.5.037.018-.239c.018-.208.043-.245.221-.3s.2-.08.166-.215a1.374,1.374,0,0,0-.049-.159,2.156,2.156,0,0,1-.595-.472c.006-.2.343-.423.576-.38C28.691-506.441,28.746-506.3,28.783-506.128Z"/></g></svg>