<svg xmlns="http://www.w3.org/2000/svg" width="56.94" height="56.919" viewBox="0 0 56.94 56.919"><defs><style>.a{fill:#369;}</style></defs><g transform="translate(-0.041 511.874)"><path class="a" d="M28.458-511.81a19.512,19.512,0,0,0-2.948.545c-.512.211-.6.378-.934,1.68a54.146,54.146,0,0,0-1.29,8.265,63.01,63.01,0,0,0,.178,10.089c.044.234.011.256-.367.256a43.372,43.372,0,0,0-4.828.612c-6.385,1.2-12.815,3.949-16.841,7.186C-.13-481.92-.2-481.7.359-479.851a52.384,52.384,0,0,0,9.333,17.687,38.028,38.028,0,0,0,4.472,4.361,14.829,14.829,0,0,0,5.662,2.7,12.681,12.681,0,0,0,4.405-.1c4.1-1.135,7.108-5.039,8.621-11.235a39.67,39.67,0,0,0,1.012-7.853c.022-1.6-.1-1.5,1.6-1.513a9.14,9.14,0,0,0,4.094-.879,18.545,18.545,0,0,0,6.029-4.438A42.727,42.727,0,0,0,53.6-492.888c1.58-3.282,3.226-7.731,3.359-9.11.056-.623.056-.634-.423-1.157a25.775,25.775,0,0,0-6.608-4.349,44.548,44.548,0,0,0-14.884-4.216A55.239,55.239,0,0,0,28.458-511.81Zm6.4,2.425a41.49,41.49,0,0,1,14.372,4.171,27.739,27.739,0,0,1,5.25,3.337c.2.189-1.3,4.316-2.6,7.13-3.1,6.774-7.62,12.581-11.724,15.062a8.815,8.815,0,0,1-6.318,1.491,8.675,8.675,0,0,1-3.282-1.7c-2.558-2.325-4.249-6.719-4.872-12.625a63.787,63.787,0,0,1-.067-8.632,21.809,21.809,0,0,1,.612-4.283,19.2,19.2,0,0,0,3.56-.512,1.144,1.144,0,0,0-.545-2.069c-.189-.011-.845.022-1.468.078-.857.067-1.146.056-1.146-.044a7.064,7.064,0,0,1,.289-1.224,7.764,7.764,0,0,1,.957-.178A40.569,40.569,0,0,1,34.854-509.385ZM24.119-487.449a20.47,20.47,0,0,0,3.426,7.8l.445.59-.245.256a3.843,3.843,0,0,1-.879.578,2.7,2.7,0,0,1-1.58.323c-1.368,0-1.869-.278-3.081-1.7a1.139,1.139,0,0,0-2.025.267c-.145.423-.145.489.089.979a5.98,5.98,0,0,0,3.515,2.681,7.439,7.439,0,0,0,3.015.011A7,7,0,0,0,29.259-477l.512-.445.345.211c.189.111.59.345.9.512l.545.311-.022,1.479c-.111,5.684-1.346,10.779-3.371,13.882a13.834,13.834,0,0,1-1.424,1.669,6.91,6.91,0,0,1-3.293,1.947,8.928,8.928,0,0,1-3.393-.011c-5.228-1.224-11.524-8.476-15.573-17.954-.367-.857-.667-1.58-.667-1.6a11.572,11.572,0,0,1,1.19-.912c.667-.478,1.313-.957,1.446-1.079a1.244,1.244,0,0,0-.122-1.8,1.414,1.414,0,0,0-.679-.167c-.389,0-.634.122-1.557.779a11.243,11.243,0,0,1-1.123.745,6.165,6.165,0,0,1-.267-.745l-.222-.723.467-.434a27.139,27.139,0,0,1,4.928-3.07,41.414,41.414,0,0,1,14.405-4.16c.768-.089,1.424-.156,1.468-.167A7.582,7.582,0,0,1,24.119-487.449Z" transform="translate(0)"/><path class="a" d="M279.972-476.967a1.052,1.052,0,0,0-.423.489.954.954,0,0,0-.067.834,1.187,1.187,0,0,0,2.269-.022A1.211,1.211,0,0,0,279.972-476.967Z" transform="translate(-248.299 -30.917)"/><path class="a" d="M242.64-419.564a4.234,4.234,0,0,0-2.191.979.833.833,0,0,0-.278.834,1.092,1.092,0,0,0,.356.7c.478.412.768.423,1.646.078a3.291,3.291,0,0,1,2.992.044,3.4,3.4,0,0,1,1.969,2.859c.1.656.167.823.456,1.079a1.1,1.1,0,0,0,1.324.156c.578-.3.712-1.068.4-2.392A5.831,5.831,0,0,0,242.64-419.564Z" transform="translate(-213.404 -81.968)"/><path class="a" d="M357.848-382.653a5.808,5.808,0,0,0-2.959,2.058c-.567.768-.69,1.246-.445,1.724.222.445.489.578,1.079.578.412,0,.523-.056.868-.467,1.268-1.468,1.691-1.7,3.126-1.7a2.533,2.533,0,0,1,1.657.334,3.671,3.671,0,0,1,.945.756c.189.234.445.556.567.7a1.158,1.158,0,0,0,2.013-.968c-.167-.9-1.735-2.336-3.148-2.892A7.351,7.351,0,0,0,357.848-382.653Z" transform="translate(-314.874 -114.685)"/><path class="a" d="M276.006-306.794a.789.789,0,0,0-.345.834c.056,1.6,1.913,3.7,3.8,4.3a6.327,6.327,0,0,0,3.771-.067,5.873,5.873,0,0,0,2.325-1.491,1.244,1.244,0,0,0-.367-1.68c-.478-.256-.923-.156-1.724.4a4.368,4.368,0,0,1-2.214.823,4.325,4.325,0,0,1-1.924-.679,3.749,3.749,0,0,1-1.379-1.824A1.154,1.154,0,0,0,276.006-306.794Z" transform="translate(-244.957 -181.967)"/><path class="a" d="M65.744-248.366a1.166,1.166,0,0,0-.489,1.924c1.057,1.012,2.714-.523,1.713-1.591A1.108,1.108,0,0,0,65.744-248.366Z" transform="translate(-57.665 -234.144)"/><path class="a" d="M67.272-210.826c-.3.278-.356.423-.467,1.29a3.8,3.8,0,0,1-2.147,2.814,3.642,3.642,0,0,1-2.792-.078c-.868-.367-1.313-.334-1.724.167-.734.868-.122,1.8,1.491,2.258a5.792,5.792,0,0,0,6.908-2.992,4.253,4.253,0,0,0,.5-3.07A1.131,1.131,0,0,0,67.272-210.826Z" transform="translate(-53.141 -267.312)"/><path class="a" d="M155.41-111.81a5.888,5.888,0,0,0-3.07,1.936,5.778,5.778,0,0,0-1.135,2.325,1.112,1.112,0,0,0,1.847,1.035,2.581,2.581,0,0,0,.5-.823,4.367,4.367,0,0,1,1.78-1.958,2.541,2.541,0,0,1,1.457-.3,3.413,3.413,0,0,1,2.436.879c.8.6,1.557.512,1.947-.234.278-.545.156-.934-.467-1.535A5.809,5.809,0,0,0,155.41-111.81Z" transform="translate(-134.339 -355.404)"/></g></svg>