<svg xmlns="http://www.w3.org/2000/svg" width="32.46" height="22.965" viewBox="0 0 32.46 22.965"><defs><style>.a{fill:#369;}</style></defs><g transform="translate(-0.167 437)"><path class="a" d="M4.058-425.638C1.933-419.389.182-414.219.169-414.155c-.019.114.051.121,1.979.121,1.1,0,2-.019,2-.044s5.557-22.578,5.621-22.813c.032-.1-.038-.108-.907-.108H7.928Z"/><path class="a" d="M91.808-436.226c-.108.431-1.37,5.545-2.8,11.375s-2.62,10.645-2.639,10.7c-.032.108.2.114,4.181.114h4.212l.038-.431c.019-.235.07-.99.114-1.681l.076-1.25h4.276l.076,1.256c.044.685.1,1.44.114,1.675l.038.431H103.7c3.984,0,4.212-.006,4.181-.114-.019-.057-1.205-4.872-2.639-10.7s-2.7-10.943-2.8-11.375l-.19-.774H92Zm6.04-.254c.019.114.063.679.1,1.256s.082,1.2.1,1.377l.038.336H96.16l.038-.336c.019-.178.063-.8.1-1.377s.082-1.142.1-1.256l.032-.2h1.383Zm.565,7.676c.063.812.108,1.529.108,1.586,0,.108-.108.114-1.4.114s-1.4-.006-1.4-.114c0-.057.044-.774.108-1.586l.108-1.472h2.366Zm.387,5.3c.019.171.063.774.1,1.351s.082,1.142.1,1.25l.032.209H95.215l.032-.209c.019-.108.063-.672.1-1.25s.082-1.18.1-1.351l.038-.3h3.273Z" transform="translate(-80.727)"/><path class="a" d="M360.314-436.892c.063.235,5.621,22.775,5.621,22.813s.9.044,2,.044c1.929,0,2-.006,1.979-.121-.013-.063-1.757-5.234-3.889-11.483L362.16-437h-.939C360.352-437,360.282-436.994,360.314-436.892Z" transform="translate(-337.293)"/></g></svg>