<svg xmlns="http://www.w3.org/2000/svg" width="52.71" height="57.89" viewBox="0 0 52.71 57.89"><defs><style>.a{fill:#326495;}</style></defs><g transform="translate(-22.898 512)"><path class="a" d="M44-511.717c-.271.26-.283.317-.283,1.922v1.639H41.5c-2.227,0-2.533.045-2.838.441a9.09,9.09,0,0,0-.147,2.465v2.284l-1.7.034c-1.583.034-1.707.045-1.945.294l-.26.26-.034,4.285-.034,4.3H30.327c-4.1,0-4.229.011-4.523.237l-.294.226v37.165l-1.006.045c-.882.034-1.052.068-1.3.305a1.067,1.067,0,0,0-.034,1.459l.26.249H75.113l.237-.26a1.076,1.076,0,0,0-.045-1.447c-.249-.237-.418-.271-1.3-.305L73-456.167v-25.712c0-25.451,0-25.711-.226-25.938a1.232,1.232,0,0,0-.475-.283c-.147-.034-4.466-.045-9.611-.034l-9.351.034-.26.26c-.249.249-.26.339-.294,2.567l-.034,2.318H50.961l-.034-2.318c-.034-2.227-.045-2.318-.294-2.567s-.339-.26-2.567-.294l-2.318-.034v-1.526c0-1.945-.158-2.3-1.052-2.307A.867.867,0,0,0,44-511.717Zm4.918,7.18v1.583H40.548v-3.166h8.367Zm22.048,23.4v24.988h-7.01v-13.24c0-9.837-.034-13.3-.136-13.478a.9.9,0,0,0-.916-.531.941.941,0,0,0-.984.9v.339H60v-.339a.944.944,0,0,0-.995-.9.988.988,0,0,0-1,.882l-.068.362H54.794v-23.97H70.963Zm-18.2-10.4v9.385h-7.01v-3.166h1.639c1.606,0,1.662-.011,1.922-.283a.867.867,0,0,0,.283-.7c-.011-.893-.362-1.052-2.307-1.052H45.749v-3.166h1.639c1.606,0,1.662-.011,1.922-.283a.867.867,0,0,0,.283-.7c-.011-.893-.373-1.052-2.3-1.052H45.772l-.068-.4a1.473,1.473,0,0,0-.317-.622c-.237-.215-.407-.226-4.523-.226H36.59v-7.123H52.759Zm-9.045,17.582v17.808H39.191v-4.6l-.294-.271c-.283-.271-.305-.271-3.1-.305-3.1-.034-3.516.034-3.731.6a15.81,15.81,0,0,0-.113,2.442v2.137h-4.41v-35.616H43.714Zm18.2,5.823v11.985H45.749v-23.97H61.918Zm-24.762,10.4v1.583h-.283c-.283,0-.283-.011-.283-1,0-.893-.023-1.029-.249-1.232a.958.958,0,0,0-1.153-.215c-.509.215-.633.52-.633,1.606,0,.814-.011.837-.283.837H33.99v-3.166h3.166Z"/><path class="a" d="M333.565-431.776c-.418.2-.565.611-.565,1.526,0,.961.181,1.4.667,1.594a.983.983,0,0,0,1.119-.249c.226-.215.249-.328.249-1.312-.011-1.131-.079-1.334-.531-1.572A.9.9,0,0,0,333.565-431.776Z" transform="translate(-275.04 -71.032)"/><path class="a" d="M368.509-431.549c-.441.26-.5.464-.509,1.572,0,.984.023,1.1.26,1.323a1,1,0,0,0,1.289.147c.43-.271.531-.667.464-1.82-.034-.611-.09-.848-.271-1.018A1.189,1.189,0,0,0,368.509-431.549Z" transform="translate(-306.082 -71.27)"/><path class="a" d="M402.565-431.7c-.418.2-.565.611-.565,1.526,0,.961.181,1.4.667,1.606a1.118,1.118,0,0,0,1.21-.305,5.478,5.478,0,0,0,.011-2.533A1.021,1.021,0,0,0,402.565-431.7Z" transform="translate(-336.238 -71.108)"/><path class="a" d="M333.39-373.814c-.294.283-.407.814-.339,1.753a1.389,1.389,0,0,0,.317,1.018,1,1,0,0,0,1.413,0c.26-.249.283-.362.283-1.357s-.023-1.108-.283-1.357A1.066,1.066,0,0,0,333.39-373.814Z" transform="translate(-275.068 -122.357)"/><path class="a" d="M368.283-373.717c-.26.249-.283.362-.283,1.357s.023,1.108.283,1.357a.867.867,0,0,0,.7.283c.791-.011,1.052-.418,1.052-1.639s-.26-1.628-1.052-1.639A.867.867,0,0,0,368.283-373.717Z" transform="translate(-306.082 -122.397)"/><path class="a" d="M402.771-373.773c-.249.26-.271.384-.271,1.345s.023,1.085.271,1.346a1,1,0,0,0,1.425.011c.26-.249.283-.362.283-1.357s-.023-1.108-.283-1.357A1,1,0,0,0,402.771-373.773Z" transform="translate(-336.682 -122.33)"/><path class="a" d="M333.6-316.7c-.4.158-.6.69-.6,1.583,0,.938.181,1.379.667,1.583a1.118,1.118,0,0,0,1.21-.305,5.479,5.479,0,0,0,.011-2.533A1.075,1.075,0,0,0,333.6-316.7Z" transform="translate(-275.04 -173.142)"/><path class="a" d="M368.678-316.616a1.8,1.8,0,0,0-.418.294c-.237.215-.26.339-.26,1.323,0,1.029.023,1.108.294,1.368a1.071,1.071,0,0,0,1.425.011c.237-.226.26-.362.26-1.379,0-.972-.034-1.153-.226-1.345A1.2,1.2,0,0,0,368.678-316.616Z" transform="translate(-306.082 -173.257)"/><path class="a" d="M402.577-316.686c-.418.237-.565.622-.577,1.515,0,.961.181,1.4.667,1.606a1.118,1.118,0,0,0,1.21-.305,5.478,5.478,0,0,0,.011-2.533A.985.985,0,0,0,402.577-316.686Z" transform="translate(-336.238 -173.108)"/><path class="a" d="M402.771-258.773c-.249.26-.271.384-.271,1.345s.023,1.085.271,1.346a1,1,0,0,0,1.425.011c.26-.249.283-.362.283-1.357s-.023-1.108-.283-1.357A1,1,0,0,0,402.771-258.773Z" transform="translate(-336.682 -224.327)"/><path class="a" d="M402.577-201.842c-.43.237-.565.622-.577,1.538a2.1,2.1,0,0,0,.226,1.21,1.014,1.014,0,0,0,1.662.045,5.43,5.43,0,0,0-.011-2.521,1.548,1.548,0,0,0-.893-.43A1.616,1.616,0,0,0,402.577-201.842Z" transform="translate(-336.238 -274.949)"/><path class="a" d="M402.771-143.773c-.249.26-.271.384-.271,1.345s.023,1.085.271,1.346a1,1,0,0,0,1.425.011c.26-.249.283-.362.283-1.357s-.023-1.108-.283-1.357A1,1,0,0,0,402.771-143.773Z" transform="translate(-336.682 -326.324)"/><path class="a" d="M402.706-86.374c-.475.215-.645.746-.588,1.82.045.95.226,1.255.825,1.368a1.1,1.1,0,0,0,1.04-.4,3.4,3.4,0,0,0,.147-1.266c0-.972-.023-1.108-.249-1.323A1.04,1.04,0,0,0,402.706-86.374Z" transform="translate(-336.334 -377.414)"/><path class="a" d="M172.734-385.911a.958.958,0,0,0-.271,1.538l.294.35h8.695l.271-.283a.867.867,0,0,0,.283-.7.9.9,0,0,0-.531-.916A64.42,64.42,0,0,0,172.734-385.911Z" transform="translate(-132.412 -111.696)"/><path class="a" d="M92.6-293.688c-.43.249-.5.464-.5,1.56,0,1.187.079,1.391.656,1.594a.964.964,0,0,0,1.2-.475,4.123,4.123,0,0,0,.034-2.193A1.031,1.031,0,0,0,92.6-293.688Z" transform="translate(-61.378 -193.527)"/><path class="a" d="M126.7-293.523c-.464.249-.577.611-.543,1.7.034.848.068,1.029.294,1.244a1.071,1.071,0,0,0,1.425-.011c.271-.26.294-.339.294-1.368,0-.995-.023-1.108-.26-1.334A1.111,1.111,0,0,0,126.7-293.523Z" transform="translate(-91.578 -193.692)"/><path class="a" d="M161.6-293.768c-.43.249-.5.464-.5,1.56,0,1.187.079,1.391.656,1.594a.964.964,0,0,0,1.2-.475,3.854,3.854,0,0,0,0-2.261A.992.992,0,0,0,161.6-293.768Z" transform="translate(-122.576 -193.447)"/><path class="a" d="M92.283-235.784c-.26.249-.283.362-.283,1.357s.023,1.108.283,1.357a1,1,0,0,0,1.425-.011c.249-.26.271-.384.271-1.345s-.023-1.085-.271-1.346A1,1,0,0,0,92.283-235.784Z" transform="translate(-61.289 -244.726)"/><path class="a" d="M126.441-235.884c-.328.249-.441.622-.441,1.492,0,1.221.26,1.628,1.052,1.639a.867.867,0,0,0,.7-.283c.26-.249.283-.362.283-1.357s-.023-1.108-.283-1.357A1.134,1.134,0,0,0,126.441-235.884Z" transform="translate(-91.445 -244.762)"/><path class="a" d="M161.283-235.784c-.26.249-.283.362-.283,1.357s.023,1.108.283,1.357a1,1,0,0,0,1.425-.011c.249-.26.271-.384.271-1.345s-.023-1.085-.271-1.346A1,1,0,0,0,161.283-235.784Z" transform="translate(-122.487 -244.726)"/><path class="a" d="M92.61-178.754a1.059,1.059,0,0,0-.418.305,5.43,5.43,0,0,0-.011,2.521,1.014,1.014,0,0,0,1.662-.045,2.065,2.065,0,0,0,.226-1.187c0-.938-.17-1.379-.622-1.583A.82.82,0,0,0,92.61-178.754Z" transform="translate(-61.322 -295.47)"/><path class="a" d="M126.7-178.523c-.464.249-.577.611-.543,1.685.023.769.079,1.029.249,1.221a1.1,1.1,0,0,0,1.617-.09,3.4,3.4,0,0,0,.147-1.266c0-.984-.023-1.1-.26-1.323A1.111,1.111,0,0,0,126.7-178.523Z" transform="translate(-91.578 -295.69)"/><path class="a" d="M161.61-178.76a1.059,1.059,0,0,0-.418.305,5.43,5.43,0,0,0-.011,2.521,1.1,1.1,0,0,0,1.617.09c.158-.181.226-.452.26-1.131.045-1.052-.1-1.5-.565-1.741A.806.806,0,0,0,161.61-178.76Z" transform="translate(-122.52 -295.464)"/><path class="a" d="M92.283-120.8c-.26.249-.283.362-.283,1.357s.023,1.108.283,1.357a.876.876,0,0,0,.712.283c.814,0,1.108-.565,1.018-1.979A1.389,1.389,0,0,0,93.7-120.8,1,1,0,0,0,92.283-120.8Z" transform="translate(-61.289 -346.713)"/><path class="a" d="M126.441-120.884c-.328.249-.441.622-.441,1.492,0,1.221.26,1.628,1.052,1.639a.867.867,0,0,0,.7-.283c.26-.249.283-.362.283-1.357s-.023-1.108-.283-1.357A1.134,1.134,0,0,0,126.441-120.884Z" transform="translate(-91.445 -346.759)"/><path class="a" d="M161.283-120.8c-.26.249-.283.362-.283,1.357s.023,1.108.283,1.357a.876.876,0,0,0,.712.283c.814,0,1.108-.565,1.018-1.979a1.389,1.389,0,0,0-.317-1.018A1,1,0,0,0,161.283-120.8Z" transform="translate(-122.487 -346.713)"/><path class="a" d="M253.283-212.784l-.283.271v9.532c.011,7.315.034,9.577.147,9.712a1.032,1.032,0,0,0,1.515.17l.317-.271v-19.108l-.271-.294A1,1,0,0,0,253.283-212.784Z" transform="translate(-204.085 -265.126)"/><path class="a" d="M287.771-212.773l-.271.294v9.532c0,9.181.011,9.543.215,9.769a1.1,1.1,0,0,0,1.617-.09c.113-.136.136-2.4.147-9.712v-9.532l-.283-.271A1,1,0,0,0,287.771-212.773Z" transform="translate(-234.684 -265.126)"/><path class="a" d="M322.283-212.74l-.283.271v9.532c.011,7.315.034,9.577.147,9.712a1.032,1.032,0,0,0,1.515.17l.317-.271.034-9.373c.011-5.145,0-9.475-.034-9.611A1.032,1.032,0,0,0,322.283-212.74Z" transform="translate(-265.284 -265.171)"/></g></svg>